<svg id="visual" viewBox="0 0 900 600" width="900" height="600" xmlns="http://www.w3.org/2000/svg" xmlns:xlink="http://www.w3.org/1999/xlink" version="1.1"><rect x="0" y="0" width="900" height="600" fill="#215a86"></rect><defs><linearGradient id="grad1_0" x1="33.3%" y1="100%" x2="100%" y2="0%"><stop offset="20%" stop-color="#fbae3c" stop-opacity="1"></stop><stop offset="80%" stop-color="#fbae3c" stop-opacity="1"></stop></linearGradient></defs><defs><linearGradient id="grad1_1" x1="33.3%" y1="100%" x2="100%" y2="0%"><stop offset="20%" stop-color="#fbae3c" stop-opacity="1"></stop><stop offset="80%" stop-color="#ff796d" stop-opacity="1"></stop></linearGradient></defs><defs><linearGradient id="grad1_2" x1="33.3%" y1="100%" x2="100%" y2="0%"><stop offset="20%" stop-color="#cf6499" stop-opacity="1"></stop><stop offset="80%" stop-color="#ff796d" stop-opacity="1"></stop></linearGradient></defs><defs><linearGradient id="grad1_3" x1="33.3%" y1="100%" x2="100%" y2="0%"><stop offset="20%" stop-color="#cf6499" stop-opacity="1"></stop><stop offset="80%" stop-color="#7c63a4" stop-opacity="1"></stop></linearGradient></defs><defs><linearGradient id="grad1_4" x1="33.3%" y1="100%" x2="100%" y2="0%"><stop offset="20%" stop-color="#215a86" stop-opacity="1"></stop><stop offset="80%" stop-color="#7c63a4" stop-opacity="1"></stop></linearGradient></defs><defs><linearGradient id="grad2_0" x1="0%" y1="100%" x2="66.7%" y2="0%"><stop offset="20%" stop-color="#fbae3c" stop-opacity="1"></stop><stop offset="80%" stop-color="#fbae3c" stop-opacity="1"></stop></linearGradient></defs><defs><linearGradient id="grad2_1" x1="0%" y1="100%" x2="66.7%" y2="0%"><stop offset="20%" stop-color="#ff796d" stop-opacity="1"></stop><stop offset="80%" stop-color="#fbae3c" stop-opacity="1"></stop></linearGradient></defs><defs><linearGradient id="grad2_2" x1="0%" y1="100%" x2="66.7%" y2="0%"><stop offset="20%" stop-color="#ff796d" stop-opacity="1"></stop><stop offset="80%" stop-color="#cf6499" stop-opacity="1"></stop></linearGradient></defs><defs><linearGradient id="grad2_3" x1="0%" y1="100%" x2="66.7%" y2="0%"><stop offset="20%" stop-color="#7c63a4" stop-opacity="1"></stop><stop offset="80%" stop-color="#cf6499" stop-opacity="1"></stop></linearGradient></defs><defs><linearGradient id="grad2_4" x1="0%" y1="100%" x2="66.7%" y2="0%"><stop offset="20%" stop-color="#7c63a4" stop-opacity="1"></stop><stop offset="80%" stop-color="#215a86" stop-opacity="1"></stop></linearGradient></defs><g transform="translate(900, 600)"><path d="M-135.2 0C-122.8 -4.1 -110.4 -8.1 -113 -14.9C-115.6 -21.7 -133.2 -31.1 -130.6 -35C-128 -38.8 -105.3 -37.1 -100.7 -41.7C-96.1 -46.4 -109.6 -57.4 -113.4 -65.5C-117.3 -73.6 -111.4 -78.6 -102.3 -78.5C-93.3 -78.4 -81.1 -73.1 -77.8 -77.8C-74.5 -82.4 -80.2 -97 -77.3 -100.8C-74.5 -104.5 -63.1 -97.4 -57.5 -99.6C-51.9 -101.8 -51.9 -113.3 -47.8 -115.5C-43.8 -117.7 -35.6 -110.6 -30 -112C-24.5 -113.5 -21.5 -123.6 -17 -128.9C-12.4 -134.2 -6.2 -134.7 0 -135.2L0 0Z" fill="#4e6099"></path><path d="M-108.2 0C-98.3 -3.2 -88.3 -6.5 -90.4 -11.9C-92.5 -17.3 -106.5 -24.9 -104.5 -28C-102.4 -31.1 -84.2 -29.7 -80.6 -33.4C-76.9 -37.1 -87.7 -45.9 -90.8 -52.4C-93.8 -58.9 -89.1 -62.9 -81.9 -62.8C-74.6 -62.7 -64.9 -58.5 -62.2 -62.2C-59.6 -65.9 -64.1 -77.6 -61.9 -80.6C-59.6 -83.6 -50.5 -77.9 -46 -79.7C-41.5 -81.4 -41.5 -90.6 -38.3 -92.4C-35 -94.1 -28.5 -88.5 -24 -89.6C-19.6 -90.8 -17.2 -98.9 -13.6 -103.1C-9.9 -107.3 -5 -107.8 0 -108.2L0 0Z" fill="#a863a4"></path><path d="M-81.1 0C-73.7 -2.4 -66.3 -4.9 -67.8 -8.9C-69.4 -13 -79.9 -18.7 -78.4 -21C-76.8 -23.3 -63.2 -22.2 -60.4 -25C-57.7 -27.8 -65.8 -34.5 -68.1 -39.3C-70.4 -44.1 -66.8 -47.2 -61.4 -47.1C-56 -47.1 -48.6 -43.9 -46.7 -46.7C-44.7 -49.5 -48.1 -58.2 -46.4 -60.5C-44.7 -62.7 -37.9 -58.4 -34.5 -59.8C-31.1 -61.1 -31.1 -68 -28.7 -69.3C-26.3 -70.6 -21.3 -66.3 -18 -67.2C-14.7 -68.1 -12.9 -74.2 -10.2 -77.3C-7.4 -80.5 -3.7 -80.8 0 -81.1L0 0Z" fill="#ed6a86"></path><path d="M-54.1 0C-49.1 -1.6 -44.2 -3.2 -45.2 -6C-46.2 -8.7 -53.3 -12.5 -52.2 -14C-51.2 -15.5 -42.1 -14.8 -40.3 -16.7C-38.4 -18.5 -43.9 -23 -45.4 -26.2C-46.9 -29.4 -44.6 -31.5 -40.9 -31.4C-37.3 -31.4 -32.4 -29.3 -31.1 -31.1C-29.8 -33 -32.1 -38.8 -30.9 -40.3C-29.8 -41.8 -25.3 -39 -23 -39.8C-20.7 -40.7 -20.8 -45.3 -19.1 -46.2C-17.5 -47.1 -14.2 -44.2 -12 -44.8C-9.8 -45.4 -8.6 -49.4 -6.8 -51.6C-5 -53.7 -2.5 -53.9 0 -54.1L0 0Z" fill="#ff9153"></path><path d="M-27 0C-24.6 -0.8 -22.1 -1.6 -22.6 -3C-23.1 -4.3 -26.6 -6.2 -26.1 -7C-25.6 -7.8 -21.1 -7.4 -20.1 -8.3C-19.2 -9.3 -21.9 -11.5 -22.7 -13.1C-23.5 -14.7 -22.3 -15.7 -20.5 -15.7C-18.7 -15.7 -16.2 -14.6 -15.6 -15.6C-14.9 -16.5 -16 -19.4 -15.5 -20.2C-14.9 -20.9 -12.6 -19.5 -11.5 -19.9C-10.4 -20.4 -10.4 -22.7 -9.6 -23.1C-8.8 -23.5 -7.1 -22.1 -6 -22.4C-4.9 -22.7 -4.3 -24.7 -3.4 -25.8C-2.5 -26.8 -1.2 -26.9 0 -27L0 0Z" fill="#fbae3c"></path></g><g transform="translate(0, 0)"><path d="M135.2 0C126.2 5 117.1 10 114 15C110.9 20 113.7 25.1 115.9 31.1C118.1 37 119.8 43.9 116.4 48.2C113 52.6 104.5 54.4 99.6 57.5C94.7 60.6 93.4 64.9 94.4 72.4C95.4 80 98.7 90.8 95.6 95.6C92.5 100.4 83.1 99.1 75.5 98.4C67.8 97.6 62 97.4 57.5 99.6C53 101.8 50 106.5 45.9 110.9C41.9 115.2 36.9 119.2 31.3 116.9C25.7 114.6 19.5 106.1 14.2 108.1C8.9 110.1 4.5 122.6 0 135.2L0 0Z" fill="#4e6099"></path><path d="M108.2 0C100.9 4 93.7 8 91.2 12C88.7 16 90.9 20.1 92.7 24.8C94.5 29.6 95.9 35.1 93.1 38.6C90.4 42.1 83.6 43.5 79.7 46C75.8 48.5 74.7 51.9 75.5 58C76.3 64 78.9 72.7 76.5 76.5C74 80.3 66.5 79.3 60.4 78.7C54.3 78.1 49.6 77.9 46 79.7C42.4 81.5 40 85.2 36.7 88.7C33.5 92.2 29.5 95.3 25.1 93.5C20.6 91.7 15.6 84.8 11.4 86.5C7.1 88.1 3.6 98.1 0 108.2L0 0Z" fill="#a863a4"></path><path d="M81.1 0C75.7 3 70.3 6 68.4 9C66.5 12 68.2 15.1 69.5 18.6C70.9 22.2 71.9 26.3 69.8 28.9C67.8 31.5 62.7 32.7 59.8 34.5C56.8 36.3 56 38.9 56.6 43.5C57.2 48 59.2 54.5 57.4 57.4C55.5 60.2 49.9 59.5 45.3 59C40.7 58.6 37.2 58.4 34.5 59.8C31.8 61.1 30 63.9 27.6 66.5C25.1 69.1 22.1 71.5 18.8 70.1C15.4 68.8 11.7 63.6 8.5 64.8C5.3 66 2.7 73.6 0 81.1L0 0Z" fill="#ed6a86"></path><path d="M54.1 0C50.5 2 46.9 4 45.6 6C44.4 8 45.5 10 46.4 12.4C47.3 14.8 47.9 17.5 46.6 19.3C45.2 21 41.8 21.8 39.8 23C37.9 24.2 37.4 26 37.8 29C38.2 32 39.5 36.3 38.2 38.2C37 40.2 33.3 39.7 30.2 39.4C27.1 39 24.8 38.9 23 39.8C21.2 40.7 20 42.6 18.4 44.3C16.8 46.1 14.8 47.7 12.5 46.8C10.3 45.8 7.8 42.4 5.7 43.2C3.6 44 1.8 49.1 0 54.1L0 0Z" fill="#ff9153"></path><path d="M27 0C25.2 1 23.4 2 22.8 3C22.2 4 22.7 5 23.2 6.2C23.6 7.4 24 8.8 23.3 9.6C22.6 10.5 20.9 10.9 19.9 11.5C18.9 12.1 18.7 13 18.9 14.5C19.1 16 19.7 18.2 19.1 19.1C18.5 20.1 16.6 19.8 15.1 19.7C13.6 19.5 12.4 19.5 11.5 19.9C10.6 20.4 10 21.3 9.2 22.2C8.4 23 7.4 23.8 6.3 23.4C5.1 22.9 3.9 21.2 2.8 21.6C1.8 22 0.9 24.5 0 27L0 0Z" fill="#fbae3c"></path></g></svg>