<svg id="visual" viewBox="0 0 900 600" width="900" height="600" xmlns="http://www.w3.org/2000/svg" 
xmlns:xlink="http://www.w3.org/1999/xlink" version="1.1"><rect x="0" y="0" width="900" height="600" 
fill="#002233"></rect>
<path d="M0 490L21.5 471.2C43 452.3 86 414.7 128.8 409.5C171.7 404.3 214.3 431.7 257.2 451C300 470.3 343 481.7 
385.8 482C428.7 482.3 471.3 471.7 514.2 468.3C557 465 600 469 642.8 471.8C685.7 474.7 728.3 476.3 771.2 463.2C814
 450 857 422 878.5 408L900 394L900 601L878.5 601C857 601 814 601 771.2 601C728.3 601 685.7 601 642.8 601C600 601 
 557 601 514.2 601C471.3 601 428.7 601 385.8 601C343 601 300 601 257.2 601C214.3 601 171.7 601 128.8 601C86 601 
 43 601 21.5 601L0 601Z" fill="#0066FF" stroke-linecap="round" stroke-linejoin="miter"></path>
 </svg>